<svg width="38" height="38" viewBox="0 0 38 38" fill="none" xmlns="http://www.w3.org/2000/svg">
    <circle cx="19" cy="19" r="17.5" fill="white" stroke="#B38340" stroke-width="3"/>
    <path d="M17.6138 8.17259L17.7206 8.27799L17.6138 8.17259L15.4001 10.4141C14.9767 10.8428 14.9767 11.5366 15.4001 11.9653L18.1707 14.7707L8.16753 24.8996C7.74416 25.3282 7.74416 26.0221 8.16753 26.4507L11.5024 29.8274C11.927 30.2574 12.6174 30.2576 13.0423 29.8274L12.9356 29.722L13.0423 29.8274L23.0416 19.7027L25.8082 22.5041C26.2329 22.9341 26.9233 22.9343 27.3482 22.5041L31.8325 17.9635L31.7258 17.8581L31.8325 17.9635C32.2558 17.5349 32.2558 16.841 31.8325 16.4123L23.6949 8.1726C23.2702 7.74255 22.5798 7.74239 22.1549 8.17259C21.3252 9.01267 19.9836 9.0128 19.1538 8.1726C18.7291 7.74255 18.0387 7.74239 17.6138 8.17259ZM10.4735 25.6751L19.7067 16.326L21.5056 18.1474L12.2723 27.4966L10.4735 25.6751ZM22.827 10.4043L29.5265 17.1879L26.5782 20.1732L17.706 11.1897L18.4817 10.4043C19.8063 11.1913 21.4829 11.2032 22.827 10.4043Z" fill="#B38340" stroke="#B38340" stroke-width="0.3"/>
</svg>
