<svg width="38" height="38" viewBox="0 0 38 38" fill="none" xmlns="http://www.w3.org/2000/svg">
    <circle cx="19" cy="19" r="17.5" fill="white" stroke="#B38340" stroke-width="3"/>
    <mask id="path-2-inside-1" fill="white">
        <rect x="8.63635" y="8.63623" width="19.1502" height="21.5439" rx="1"/>
    </mask>
    <rect x="8.63635" y="8.63623" width="19.1502" height="21.5439" rx="1" fill="white" stroke="#B38340" stroke-width="4" mask="url(#path-2-inside-1)"/>
    <rect x="12.5" y="13.5" width="4" height="1" rx="0.5" fill="white" stroke="#B38340"/>
    <rect x="12.5" y="17.5" width="4" height="1" rx="0.5" fill="white" stroke="#B38340"/>
    <rect x="18.5" y="17.5" width="5" height="1" rx="0.5" fill="white" stroke="#B38340"/>
    <rect x="-0.5" y="0.5" width="4" height="1" rx="0.5" transform="matrix(-1 0 0 1 23 21)" fill="white" stroke="#B38340"/>
    <rect x="-0.5" y="0.5" width="5" height="1" rx="0.5" transform="matrix(-1 0 0 1 17 21)" fill="white" stroke="#B38340"/>
    <g clip-path="url(#clip0)">
        <path d="M30.4931 24.4263L30.4929 24.426C30.3297 24.1761 30.1384 23.9448 29.9234 23.7386L29.9228 23.7381C29.6673 23.4938 29.2521 23.4761 28.9806 23.7265L28.9621 23.7426C28.8829 23.8053 28.7664 23.8156 28.6806 23.7705L28.6804 23.7704C28.5866 23.7212 28.5309 23.6145 28.5469 23.5044L30.4931 24.4263ZM30.4931 24.4263C30.6188 24.6192 30.6112 24.8273 30.5749 24.9673C30.5381 25.109 30.4563 25.251 30.3299 25.3553C30.2403 25.4292 30.2112 25.5392 30.2408 25.6348L29.7633 25.783M30.4931 24.4263L30.476 25.8151C30.3664 25.8092 30.2717 25.734 30.2407 25.6344L29.7633 25.783M26.4091 24.0179C26.6998 23.9273 26.9259 23.6316 26.9407 23.3292M26.4091 24.0179L26.9407 23.3292M26.4091 24.0179L26.2604 23.5405C26.3485 23.5131 26.4366 23.3999 26.4413 23.3049L26.4412 23.3049M26.4091 24.0179L26.2608 23.5404C26.162 23.5711 26.0467 23.536 25.9798 23.4487L26.4412 23.3049M26.9407 23.3292C26.946 23.2293 27.0267 23.1513 27.1263 23.1481L26.9407 23.3292ZM30.2734 27.9125L30.2734 27.9125C30.636 27.9659 30.9758 27.7268 31.0501 27.3705C31.1101 27.0828 31.137 26.7866 31.1303 26.4895L30.2734 27.9125ZM30.2734 27.9125C30.1806 27.8988 30.0518 27.9637 30.0078 28.0463M30.2734 27.9125L30.0078 28.0463M29.7633 25.783C29.857 26.0841 30.133 26.2977 30.45 26.3144L30.0117 24.9696C29.7696 25.1693 29.672 25.4888 29.7633 25.783ZM30.0397 29.2893L30.04 29.289C30.2928 29.0258 30.2978 28.6105 30.0485 28.3416M30.0397 29.2893L30.0075 28.0468C30.0076 28.0466 30.0077 28.0464 30.0078 28.0463M30.0397 29.2893C29.8354 29.5017 29.608 29.6908 29.3602 29.8529L30.0397 29.2893ZM30.0485 28.3416C30.0483 28.3414 30.0481 28.3412 30.0478 28.3409L29.6817 28.6814L30.0488 28.3419C30.0487 28.3418 30.0486 28.3417 30.0485 28.3416ZM30.0485 28.3416C29.9737 28.2605 29.9586 28.141 30.0078 28.0463M28.4341 29.6958L28.4346 29.6965C28.6541 29.9815 29.057 30.0513 29.36 29.8531L28.4341 29.6958ZM28.4341 29.6958C28.3666 29.6079 28.2514 29.573 28.1524 29.6036C28.0655 29.6308 27.9767 29.7447 27.9721 29.8387L27.9721 29.8395M28.4341 29.6958L27.9721 29.8395M27.9721 29.8395C27.9541 30.2017 27.6599 30.4857 27.301 30.4957L27.301 30.4957M27.9721 29.8395L27.301 30.4957M27.301 30.4957L27.2994 30.4957M27.301 30.4957L27.2994 30.4957M27.2994 30.4957C27.0008 30.503 26.7012 30.4762 26.4095 30.4155M27.2994 30.4957L26.4095 30.4155M26.4095 30.4155C26.0507 30.3411 25.8147 30.0005 25.8663 29.6409L25.8665 29.6398L26.4099 30.4156C26.4098 30.4155 26.4097 30.4155 26.4095 30.4155ZM24.4911 29.4063L24.4911 29.4063C24.7417 29.645 25.1352 29.6718 25.4174 29.4309C25.5386 29.333 25.6627 29.3369 25.7327 29.3737L24.4911 29.4063ZM24.4911 29.4063L24.49 29.4052M24.4911 29.4063L24.49 29.4052M24.49 29.4052C24.2752 29.1992 24.0839 28.9678 23.9207 28.718L24.49 29.4052ZM24.087 27.7857L24.0871 27.7859C23.9627 27.8885 23.88 28.0284 23.8415 28.1692C23.8038 28.3074 23.7913 28.5199 23.9205 28.7178L24.087 27.7857ZM24.087 27.7857L24.097 27.7779M24.087 27.7857L24.097 27.7779M24.097 27.7779C24.1651 27.7246 24.206 27.6169 24.1725 27.5087L24.6502 27.361L24.1726 27.5091C24.1419 27.4098 24.0477 27.3347 23.9374 27.3289L23.9369 27.3289M24.097 27.7779L23.9369 27.3289M23.9369 27.3289C23.5778 27.3097 23.2919 27.0176 23.2834 26.6558C23.2762 26.36 23.3032 26.0635 23.3626 25.7751C23.4365 25.4164 23.7771 25.1789 24.1383 25.2313L24.1393 25.2314M23.9369 27.3289L24.1393 25.2314M24.1393 25.2314C24.2341 25.2454 24.3624 25.1792 24.4048 25.0984L24.4051 25.0979M24.1393 25.2314L24.4051 25.0979M24.4051 25.0979C24.4549 25.0032 24.4401 24.8837 24.3649 24.8023L24.4051 25.0979ZM26.4412 23.3049L26.4414 23.3024M26.4412 23.3049L26.4414 23.3024M26.4414 23.3024C26.4608 22.941 26.7536 22.6597 27.1103 22.6483L27.1103 22.6483M26.4414 23.3024L27.1103 22.6483M27.1103 22.6483L27.1139 22.6482M27.1103 22.6483L27.1139 22.6482M27.1139 22.6482C27.4125 22.6408 27.7117 22.6679 28.0039 22.7285M27.1139 22.6482L28.0039 22.7285M28.0039 22.7285C28.3614 22.8024 28.5999 23.1423 28.547 23.5042L28.0039 22.7285ZM26.7975 26.0673C26.5245 26.2925 26.4856 26.6988 26.7107 26.9717C26.9359 27.2447 27.3422 27.2837 27.6152 27.0585C27.8881 26.8333 27.9271 26.427 27.7019 26.1541C27.4767 25.8811 27.0704 25.8421 26.7975 26.0673Z" fill="#B38340" stroke="white"/>
    </g>
    <defs>
        <clipPath id="clip0">
            <rect width="9.04665" height="9.04665" fill="white" transform="matrix(0.771384 -0.63637 -0.63637 -0.771384 26.2158 32.2739)"/>
        </clipPath>
    </defs>
</svg>
