<svg width="38" height="38" viewBox="0 0 38 38" fill="none" xmlns="http://www.w3.org/2000/svg">
    <circle cx="19" cy="19" r="17" fill="white" stroke="#B38340" stroke-width="2"/>
    <g clip-path="url(#clip0)">
        <path d="M36.2728 18.9998C36.2728 9.45334 28.5475 1.72705 19 1.72705C9.45358 1.72705 1.72729 9.45228 1.72729 18.9998C1.72729 28.4616 9.38796 36.2725 19 36.2725C28.5726 36.2725 36.2728 28.5051 36.2728 18.9998ZM19 3.7512C27.4081 3.7512 34.2486 10.5917 34.2486 18.9998C34.2486 22.0755 33.3338 25.0319 31.6372 27.536C24.8247 20.2079 13.1877 20.1948 6.3628 27.536C4.66626 25.0319 3.75144 22.0755 3.75144 18.9998C3.75144 10.5917 10.5919 3.7512 19 3.7512ZM7.62526 29.1543C13.6824 22.3602 24.3192 22.3618 30.3745 29.1543C24.2971 35.9536 13.7053 35.9557 7.62526 29.1543Z" fill="#B38340"/>
        <path d="M25.1591 13.8178C25.1591 17.2194 22.4016 19.9769 19 19.9769C15.5985 19.9769 12.8409 17.2194 12.8409 13.8178C12.8409 10.4162 15.5985 7.65869 19 7.65869C22.4016 7.65869 25.1591 10.4162 25.1591 13.8178Z" stroke="#B38340" stroke-width="1.5"/>
    </g>
    <defs>
        <clipPath id="clip0">
            <rect width="34.5455" height="34.5455" fill="white" transform="translate(1.72729 1.72705)"/>
        </clipPath>
    </defs>
</svg>
