<svg width="46" height="38" viewBox="0 0 46 38" fill="none" xmlns="http://www.w3.org/2000/svg">
    <circle cx="19.9092" cy="19" r="17.5" fill="white" stroke="#B38340" stroke-width="3"/>
    <rect x="18.1819" y="10.3638" width="3.45455" height="17.2727" rx="1.72727" fill="#B38340"/>
    <rect x="21.6364" y="10.3638" width="3.45455" height="5.18182" rx="1.72727" transform="rotate(90 21.6364 10.3638)" fill="#B38340"/>
    <rect x="23.3636" y="24.1819" width="3.45455" height="6.90909" rx="1.72727" transform="rotate(90 23.3636 24.1819)" fill="#B38340"/>
    <mask id="path-5-outside-1" maskUnits="userSpaceOnUse" x="28.2727" y="20.4546" width="18" height="18" fill="black">
        <rect fill="white" x="28.2727" y="20.4546" width="18" height="18"/>
        <path fill-rule="evenodd" clip-rule="evenodd" d="M38.9091 23.4546C38.9091 22.9023 38.4614 22.4546 37.9091 22.4546H36.4545C35.9022 22.4546 35.4545 22.9023 35.4545 23.4546V27.6364H31.2727C30.7204 27.6364 30.2727 28.0841 30.2727 28.6364V30.091C30.2727 30.6432 30.7204 31.091 31.2727 31.091H35.4545V35.2728C35.4545 35.8251 35.9022 36.2728 36.4545 36.2728H37.9091C38.4614 36.2728 38.9091 35.8251 38.9091 35.2728V31.091H43.0909C43.6432 31.091 44.0909 30.6432 44.0909 30.091V28.6364C44.0909 28.0841 43.6432 27.6364 43.0909 27.6364H38.9091V23.4546Z"/>
    </mask>
    <path fill-rule="evenodd" clip-rule="evenodd" d="M38.9091 23.4546C38.9091 22.9023 38.4614 22.4546 37.9091 22.4546H36.4545C35.9022 22.4546 35.4545 22.9023 35.4545 23.4546V27.6364H31.2727C30.7204 27.6364 30.2727 28.0841 30.2727 28.6364V30.091C30.2727 30.6432 30.7204 31.091 31.2727 31.091H35.4545V35.2728C35.4545 35.8251 35.9022 36.2728 36.4545 36.2728H37.9091C38.4614 36.2728 38.9091 35.8251 38.9091 35.2728V31.091H43.0909C43.6432 31.091 44.0909 30.6432 44.0909 30.091V28.6364C44.0909 28.0841 43.6432 27.6364 43.0909 27.6364H38.9091V23.4546Z" fill="#B38340"/>
    <path d="M35.4545 27.6364V29.1364H36.9545V27.6364H35.4545ZM35.4545 31.091H36.9545V29.591H35.4545V31.091ZM38.9091 31.091V29.591H37.4091V31.091H38.9091ZM38.9091 27.6364H37.4091V29.1364H38.9091V27.6364ZM37.9091 23.9546C37.6329 23.9546 37.4091 23.7307 37.4091 23.4546H40.4091C40.4091 22.0739 39.2898 20.9546 37.9091 20.9546V23.9546ZM36.4545 23.9546H37.9091V20.9546H36.4545V23.9546ZM36.9545 23.4546C36.9545 23.7307 36.7307 23.9546 36.4545 23.9546V20.9546C35.0738 20.9546 33.9545 22.0739 33.9545 23.4546H36.9545ZM36.9545 27.6364V23.4546H33.9545V27.6364H36.9545ZM31.2727 29.1364H35.4545V26.1364H31.2727V29.1364ZM31.7727 28.6364C31.7727 28.9125 31.5488 29.1364 31.2727 29.1364V26.1364C29.892 26.1364 28.7727 27.2557 28.7727 28.6364H31.7727ZM31.7727 30.091V28.6364H28.7727V30.091H31.7727ZM31.2727 29.591C31.5488 29.591 31.7727 29.8148 31.7727 30.091H28.7727C28.7727 31.4717 29.892 32.591 31.2727 32.591V29.591ZM35.4545 29.591H31.2727V32.591H35.4545V29.591ZM36.9545 35.2728V31.091H33.9545V35.2728H36.9545ZM36.4545 34.7728C36.7307 34.7728 36.9545 34.9966 36.9545 35.2728H33.9545C33.9545 36.6535 35.0738 37.7728 36.4545 37.7728V34.7728ZM37.9091 34.7728H36.4545V37.7728H37.9091V34.7728ZM37.4091 35.2728C37.4091 34.9966 37.6329 34.7728 37.9091 34.7728V37.7728C39.2898 37.7728 40.4091 36.6535 40.4091 35.2728H37.4091ZM37.4091 31.091V35.2728H40.4091V31.091H37.4091ZM43.0909 29.591H38.9091V32.591H43.0909V29.591ZM42.5909 30.091C42.5909 29.8148 42.8147 29.591 43.0909 29.591V32.591C44.4716 32.591 45.5909 31.4717 45.5909 30.091H42.5909ZM42.5909 28.6364V30.091H45.5909V28.6364H42.5909ZM43.0909 29.1364C42.8147 29.1364 42.5909 28.9126 42.5909 28.6364H45.5909C45.5909 27.2557 44.4716 26.1364 43.0909 26.1364V29.1364ZM38.9091 29.1364H43.0909V26.1364H38.9091V29.1364ZM37.4091 23.4546V27.6364H40.4091V23.4546H37.4091Z" fill="white" mask="url(#path-5-outside-1)"/>
</svg>
