<?xml version="1.0" encoding="UTF-8"?>
<svg width="38px" height="38px" viewBox="0 0 38 38" version="1.1" xmlns="http://www.w3.org/2000/svg" xmlns:xlink="http://www.w3.org/1999/xlink">

    <g id="Page-1" stroke="none" stroke-width="1" fill="none" fill-rule="evenodd">
        <g id="ПОДДЕРЖКА" transform="translate(1.000000, 1.000000)">
            <circle id="Oval" stroke="#B38340" stroke-width="3" fill="#FFFFFF" cx="18" cy="18" r="17.5"></circle>
            <path d="M24.2659,12.37867 C24.2659,13.08617 23.7446,13.51645 23.3639,13.83221 C23.2197,13.95181 22.9514,14.17004 22.9521,14.25155 C22.9547,14.5713 22.6945,14.82665 22.3708,14.82665 L22.366,14.82665 C22.0446,14.82665 21.7827,14.57915 21.7801,14.26101 C21.7749,13.63393 22.2381,13.2584 22.6103,12.94965 C22.9023,12.70736 23.0938,12.53687 23.0938,12.38086 C23.0938,12.06504 22.8337,11.80808 22.5141,11.80808 C22.1943,11.80808 21.9342,12.06504 21.9342,12.38086 C21.9342,12.70067 21.6718,12.95988 21.3482,12.95988 C21.0245,12.95988 20.7621,12.70067 20.7621,12.38086 C20.7621,11.4265 21.548,10.65004 22.514,10.65004 C23.48,10.64997 24.2659,11.42425 24.2659,12.37867 Z M22.3822,15.36115 C22.0585,15.36115 21.8091,15.62036 21.8091,15.94017 L21.8091,15.94461 C21.8091,16.26442 22.0586,16.52144 22.3822,16.52144 C22.7058,16.52144 22.9682,16.25998 22.9682,15.94017 C22.9682,15.62036 22.7059,15.36115 22.3822,15.36115 Z M10.56992,19.3945 C10.24624,19.3945 9.9839,19.6538 9.9839,19.9736 C9.9839,20.2934 10.24624,20.5526 10.56992,20.5526 L10.61876,20.5526 C10.94244,20.5526 11.20478,20.2934 11.20478,19.9736 C11.20478,19.6538 10.94244,19.3945 10.61876,19.3945 L10.56992,19.3945 Z M12.60662,19.3945 C12.28294,19.3945 12.0206,19.6538 12.0206,19.9736 C12.0206,20.2934 12.28294,20.5526 12.60662,20.5526 L12.65539,20.5526 C12.97907,20.5526 13.24142,20.2934 13.24142,19.9736 C13.24142,19.6538 12.97907,19.3945 12.65539,19.3945 L12.60662,19.3945 Z M29.8181,10.14635 L29.8181,16.66362 C29.8181,18.2067 28.5659,19.4589 27.0041,19.4589 L19.4042,19.4589 C19.2556,19.4589 19.1333,19.458 19.0309,19.4559 C18.9236,19.4537 18.8029,19.4529 18.7559,19.458 C18.7068,19.4902 18.5866,19.599 18.4708,19.7045 C18.4249,19.7462 18.3729,19.7921 18.3169,19.8427 L16.1667,21.7791 C15.99515,21.9337 15.7414,21.9737 15.529,21.8812 C15.3166,21.7886 15.16749,21.5808 15.16749,21.3514 L15.16749,15.21273 L9.02854,15.21273 C8.11291,15.21273 7.35381,15.95407 7.35381,16.85863 L7.35381,23.3759 C7.35381,24.2805 8.11298,24.9918 9.02854,24.9918 L17.5177,24.9918 C17.6639,24.9918 17.8006,25.0581 17.9086,25.1555 L19.6603,26.7513 L19.6603,21.2481 C19.6603,20.9282 19.9227,20.669 20.2464,20.669 C20.5701,20.669 20.8324,20.9282 20.8324,21.2481 L20.8324,28.0637 C20.8324,28.293 20.6996,28.4977 20.4871,28.5903 C20.4111,28.6234 20.3348,28.6365 20.2549,28.6365 C20.1114,28.6365 19.9698,28.5783 19.8597,28.4789 L17.2905,26.1497 L9.02854,26.1497 C7.46672,26.1497 6.181763,24.919 6.181763,23.3758 L6.181763,16.85863 C6.181763,15.31553 7.46672,14.05468 9.02854,14.05468 L15.16749,14.05468 L15.16749,10.14635 C15.16749,8.6032 16.4623,7.36377 18.0241,7.36377 L27.0042,7.36377 C28.5659,7.36377 29.8181,8.6032 29.8181,10.14635 Z M28.6461,10.14635 C28.6461,9.24173 27.9196,8.52181 27.0041,8.52181 L18.0241,8.52181 C17.1085,8.52181 16.3395,9.24173 16.3395,10.14635 L16.3395,14.63911 L16.3395,20.0391 L17.5178,18.987 C17.5723,18.9378 17.6335,18.8927 17.6781,18.8521 C18.2161,18.3622 18.3538,18.2839 19.0556,18.2982 C19.1513,18.3002 19.2653,18.3009 19.4042,18.3009 L27.0041,18.3009 C27.9196,18.3009 28.6461,17.5682 28.6461,16.66369 L28.6461,10.14635 Z" id="Shape" stroke="#BA8330" stroke-width="0.3" fill="#B38340" fill-rule="nonzero"></path>
        </g>
    </g>
</svg>
