<?xml version="1.0" encoding="UTF-8"?>
<svg width="1839px" height="380px" viewBox="0 0 1839 380" version="1.1" xmlns="http://www.w3.org/2000/svg" xmlns:xlink="http://www.w3.org/1999/xlink">
    <!-- Generator: Sketch 52.6 (67491) - http://www.bohemiancoding.com/sketch -->
    <title>BG</title>
    <desc>Created with Sketch.</desc>
    <defs>
        <linearGradient x1="41.1364872%" y1="146.154474%" x2="140.558456%" y2="126.434211%" id="linearGradient-1">
            <stop stop-color="#062959" offset="0%"></stop>
            <stop stop-color="#89AFE2" offset="100%"></stop>
        </linearGradient>
        <rect id="path-2" x="0" y="0" width="1839" height="380"></rect>
    </defs>
    <g id="Page-1" stroke="none" stroke-width="1" fill="none" fill-rule="evenodd">
        <g id="BG">
            <rect id="Rectangle" fill="url(#linearGradient-1)" x="0" y="0" width="1839" height="380"></rect>
            <g id="Clipped">
                <mask id="mask-3" fill="white">
                    <use xlink:href="#path-2"></use>
                </mask>
                <g id="Rectangle"></g>
                <g id="Group" mask="url(#mask-3)" fill="#DFFDF8">
                    <g transform="translate(-83.000000, 36.000000)" id="Shape">
                        <path d="M1868.05,513.303 C1948.14,491.365 2007,418.056 2007,331 C2007,226.618 1922.38,142 1818,142 C1713.62,142 1629,226.618 1629,331 C1629,417.344 1686.9,490.164 1765.99,512.754 C1765.97,511.761 1765.99,510.716 1766.08,509.616 C1767.04,497.099 1781.39,493.509 1786.79,498.02 C1787.36,498.5 1787,499.335 1786.26,499.468 C1773.32,501.813 1776.38,512.963 1782.78,516.725 C1787.08,517.534 1791.42,518.198 1795.81,518.712 C1795.23,516.422 1795.01,513.741 1795.25,510.617 C1796.22,497.994 1812.54,494.483 1817.21,500.022 C1817.67,500.571 1817.2,501.309 1816.48,501.357 C1800.7,502.402 1807.99,519.932 1817.06,518.925 L1817.06,519.998 C1817.2,519.998 1817.34,519.999 1817.47,519.999 C1817.65,520 1817.82,520 1818,520 C1820.45,520 1822.9,519.953 1825.33,519.86 C1824.43,517.27 1824.03,514.112 1824.33,510.29 C1825.3,497.667 1841.62,494.156 1846.28,499.695 C1846.74,500.244 1846.27,500.982 1845.56,501.03 C1831.47,501.962 1835.76,516.022 1843.29,518.322 C1846.91,517.839 1850.49,517.253 1854.04,516.569 C1853.41,514.222 1853.15,511.456 1853.4,508.213 C1854.37,495.59 1870.69,492.079 1875.36,497.617 C1875.82,498.166 1875.35,498.905 1874.63,498.952 C1863.63,499.68 1863.84,508.415 1868.05,513.303 Z M1975.85,327.885 C1975.85,414.487 1905.64,484.692 1819.04,484.692 C1732.44,484.692 1662.23,414.487 1662.23,327.885 C1662.23,241.282 1732.44,171.077 1819.04,171.077 C1905.64,171.077 1975.85,241.282 1975.85,327.885 Z M1685.08,326.846 C1685.08,328.95 1685.13,331.043 1685.22,333.123 C1705.77,321.932 1728.36,313.242 1752.39,307.553 L1743.15,308.047 L1742.99,305.051 L1771.62,303.522 C1771.41,302.001 1771.27,300.458 1771.2,298.896 L1738.31,300.962 L1728.69,290.824 L1739.78,282.328 L1771.68,289.497 C1771.9,287.954 1772.2,286.435 1772.56,284.942 L1745.06,279.03 L1745.69,276.097 L1773.36,282.044 C1774.52,278.255 1776.13,274.658 1778.12,271.314 L1753.42,252.732 L1755.22,250.335 L1779.73,268.774 C1780.6,267.486 1781.54,266.241 1782.52,265.044 L1754.26,244.191 L1753.42,230.245 L1767.38,230.87 L1788.67,258.798 C1789.85,257.79 1791.08,256.836 1792.35,255.94 L1773.54,231.734 L1775.9,229.893 L1794.86,254.283 C1799.47,251.437 1804.58,249.321 1810.03,248.097 L1806.02,218.006 L1808.99,217.61 L1812.98,247.527 C1814.5,247.281 1816.04,247.104 1817.61,246.998 L1812.7,212.615 L1822.04,202.231 L1831.39,212.615 L1826.45,247.179 C1828.01,247.348 1829.54,247.589 1831.06,247.898 L1835.09,217.61 L1838.07,218.006 L1833.99,248.593 C1839.33,250.029 1844.31,252.328 1848.78,255.332 L1867.22,231.6 L1869.59,233.441 L1851.22,257.081 C1852.45,258.024 1853.64,259.024 1854.78,260.077 L1875.75,232.578 L1889.7,231.953 L1888.86,245.898 L1860.75,266.641 C1861.69,267.879 1862.57,269.161 1863.39,270.485 L1887.9,252.043 L1889.7,254.44 L1864.9,273.1 C1866.73,276.477 1868.17,280.089 1869.18,283.879 L1897.44,277.804 L1898.07,280.737 L1869.86,286.8 C1870.17,288.31 1870.4,289.845 1870.57,291.401 L1903.34,284.036 L1914.43,292.531 L1904.82,302.67 L1870.71,300.527 C1870.61,301.817 1870.46,303.094 1870.27,304.354 C1872.26,304.71 1874.24,305.085 1876.21,305.481 L1900.13,306.759 L1899.97,309.755 L1892.97,309.381 C1915.07,315.242 1935.86,323.661 1954.88,334.236 C1955.01,331.789 1955.08,329.326 1955.08,326.846 C1955.08,252.288 1894.64,191.846 1820.08,191.846 C1745.52,191.846 1685.08,252.288 1685.08,326.846 Z M1685.89,351.642 C1730.27,323.085 1845.7,283.13 1952.19,351.642 L1953.81,349.119 C1845.96,279.724 1729.19,320.215 1684.27,349.119 L1685.89,351.642 Z M1689,366.181 C1733.4,337.618 1842.6,297.672 1949.07,366.181 L1950.7,363.658 C1842.84,294.259 1732.3,334.759 1687.38,363.658 L1689,366.181 Z M1694.2,381.758 C1738.6,353.186 1838.45,313.255 1944.92,381.758 L1946.54,379.235 C1838.67,309.83 1737.47,350.344 1692.57,379.235 L1694.2,381.758 Z M1701.47,396.296 C1723.69,381.996 1756.65,364.882 1797.34,359.892 C1837.98,354.906 1886.44,362.01 1939.73,396.296 L1941.35,393.773 C1887.47,359.106 1838.31,351.844 1796.97,356.914 C1755.67,361.98 1722.27,379.343 1699.84,393.773 L1701.47,396.296 Z M1886.54,397.564 C1835.65,363.295 1776.81,383.718 1755.69,397.564 C1755.69,417.502 1772.31,437.025 1780.62,444.295 L1782.92,444.295 C1782.7,442.984 1782.63,441.506 1782.76,439.842 C1783.39,431.643 1792.47,429.08 1796.41,431.649 C1797.04,432.058 1796.68,432.89 1795.95,433.05 C1788.15,434.762 1789.68,441.5 1793.53,444.295 L1802.65,444.295 C1802.51,443.158 1802.48,441.904 1802.58,440.523 C1803.22,432.225 1813.62,429.72 1817.17,432.971 C1817.7,433.456 1817.24,434.197 1816.52,434.271 C1809.32,435.013 1809.77,441.119 1812.82,444.295 L1822.44,444.295 C1822.27,443.1 1822.23,441.773 1822.35,440.301 C1822.99,432.003 1833.38,429.498 1836.93,432.749 C1837.46,433.234 1837,433.975 1836.29,434.048 C1828.91,434.809 1829.55,441.191 1832.81,444.295 L1843.61,444.295 C1843.45,443.1 1843.41,441.773 1843.52,440.301 C1844.16,432.003 1854.56,429.498 1858.11,432.749 C1858.64,433.234 1858.17,433.975 1857.46,434.048 C1850.08,434.809 1850.73,441.191 1853.98,444.295 L1860.58,444.295 C1860.58,444.295 1886.54,421.448 1886.54,397.564 Z M1781.65,397.461 L1785.15,408.225 L1796.47,408.225 L1787.31,414.877 L1790.81,425.64 L1781.65,418.988 L1772.5,425.64 L1776,414.877 L1766.84,408.225 L1778.16,408.225 L1781.65,397.461 Z M1824.61,399.917 L1821.12,389.154 L1817.62,399.917 L1806.3,399.917 L1815.46,406.569 L1811.96,417.333 L1821.12,410.68 L1830.27,417.333 L1826.77,406.569 L1835.93,399.917 L1824.61,399.917 Z M1860.58,397.461 L1864.07,408.225 L1875.39,408.225 L1866.24,414.877 L1869.73,425.64 L1860.58,418.988 L1851.42,425.64 L1854.92,414.877 L1845.76,408.225 L1857.08,408.225 L1860.58,397.461 Z" opacity="0.1"></path>
                        <path d="M104.3464,162.076 C139.3078,152.5 165,120.501 165,82.5 C165,36.9365 128.0635,0 82.5,0 C36.9365,0 0,36.9365 0,82.5 C0,120.19 25.2736,151.976 59.7977,161.837 C59.7863,161.404 59.7981,160.947 59.835,160.467 C60.2145,155.534 65.3583,153.778 68.0878,154.932 C68.7771,155.223 68.4594,156.038 67.7419,156.25 C63.1554,157.609 64.4937,162.023 67.1283,163.571 C69.0023,163.924 70.8988,164.213 72.8153,164.438 C72.5622,163.438 72.4641,162.268 72.569,160.904 C72.9554,155.881 78.91113,154.163 81.50282,155.731 C82.117073,156.103 81.69137,156.838 80.98434,156.963 C75.22894,157.976 78.30438,164.951 82.088295,164.53 L82.088295,164.999 C82.225449,165 82.362686,165 82.5,165 C83.571465,165 84.63815,164.98 85.69971,164.939 C85.3084,163.808 85.13287,162.43 85.26119,160.761 C85.64759,155.738 91.60332,154.02 94.195,155.588 C94.8093,155.96 94.3836,156.695 93.6765,156.82 C88.56902,157.72 90.41608,163.313 93.5412,164.268 C95.1185,164.057 96.6818,163.801 98.2297,163.502 C97.9546,162.478 97.8446,161.271 97.9535,159.855 C98.3399,154.831 104.2957,153.114 106.8874,154.682 C107.5016,155.053 107.0759,155.789 106.3689,155.913 C102.4382,156.605 102.6265,160.078 104.3464,162.076 Z M151.4011,81.14 C151.4011,118.943 120.756,149.588 82.9533234,149.588 C45.1506,149.588 14.5055,118.943 14.5055,81.14 C14.5055,43.3374 45.1506,12.6923 82.9533234,12.6923 C120.756,12.6923 151.4011,43.3374 151.4011,81.14 Z M24.478,80.687 C24.478,81.605 24.499,82.519 24.5406,83.427 C32.3661,79.166 40.8655,75.735 49.8705,73.281 L49.7129,70.329 L62.1553,69.664 C62.1175,69.275 62.0901,68.882 62.0732,68.486 L47.7126,69.388 L43.5166,64.963 L48.3579,61.2544 L62.2804,64.383 C62.3373,63.9923 62.4046,63.6045 62.482,63.2204 L50.4815,60.641 L51.112,57.7079 L63.2788,60.3232 C63.661,59.2359 64.1271,58.1882 64.6694,57.1877 L53.8015,49.0108 L55.6052,46.6136 L66.283,54.6475 C66.5184,54.328 66.7623,54.0152 67.0144,53.7095 L54.6781,44.6071 L54.31,38.5198 L60.4023,38.7926 L69.695,50.983 C69.9965,50.7257 70.3052,50.4764 70.6207,50.2356 L62.4233,39.688 L64.7921,37.847 L73.13274,48.5791 C74.70865,47.6897 76.40651,46.9911 78.19499,46.5146 L76.43159,33.289 L79.40527,32.8926 L81.14553,45.9445 C81.53689,45.8967 81.93145,45.8593 82.328941,45.8326 L80.18489,30.8242 L84.26456,26.2912 L88.34423,30.8242 L86.18893,45.9113 C86.58479,45.9543 86.97746,46.0079 87.36665,46.0719 L89.12389,32.8926 L92.09757,33.289 L90.30051,46.767 C92.04501,47.3114 93.6952,48.0694 95.2205,49.0105 L103.3172,38.5924 L105.6859,40.4333 L97.6609,50.7592 C97.9667,51.0118 98.2654,51.2726 98.5568,51.5413 L107.7069,39.5378 L113.7993,39.265 L113.4312,45.3523 L101.1596,54.4069 C101.3989,54.7225 101.6298,55.0448 101.8519,55.3735 L112.5041,47.3589 L114.3077,49.7562 L103.3659,57.9887 C103.8563,58.9906 104.2719,60.0357 104.6055,61.1169 L116.9974,58.4532 L117.6278,61.3863 L105.289,64.038 C105.3519,64.427 105.4045,64.819 105.4466,65.215 L119.7514,61.9997 L124.5928,65.708 L120.3967,70.133 L105.5073,69.198 C105.4774,69.595 105.4369,69.989 105.386,70.379 L118.3965,71.074 L118.2453,73.905 C126.7696,76.403 134.8195,79.781 142.2484,83.912 C142.306,82.844 142.3352,81.769 142.3352,80.687 C142.3352,48.1415 115.9519,21.7583 83.406586,21.7583 C50.8612,21.7583 24.478,48.1415 24.478,80.687 Z M25.2896,92.221 C44.5123,79.853 94.5225,62.5637 140.6169,92.221 L142.2402,89.698 C94.7742,59.1583 43.4272,76.984 23.6664,89.698 L25.2896,92.221 Z M26.6495,98.567 C45.8803,86.194 93.1684,68.914 139.257,98.567 L140.8803,96.045 C93.4085,65.501 44.7791,83.335 25.0263,96.045 L26.6495,98.567 Z M28.916,105.367 C48.1599,92.985 91.36449,75.719 137.4438,105.367 L139.0671,102.844 C91.58604,72.294 47.0323,90.143 27.2928,102.844 L28.916,105.367 Z M32.0891,111.713 C41.7341,105.507 55.9985,98.107 73.58267,95.95 C91.13024,93.798 112.0832,96.854 135.1774,111.713 L136.8006,109.19 C113.1146,93.95 91.45765,90.736 73.21745,92.973 C55.0139,95.205 40.3125,102.855 30.4658,109.19 L32.0891,111.713 Z M112.4177,111.556 C90.20613,96.597 64.5193,105.512 55.3023,111.556 C55.3023,120.259 62.555,128.781 66.1814,131.954 L67.187,131.954 C67.0892,131.382 67.0604,130.737 67.1163,130.011 C67.3524,126.94 70.3049,125.68 72.2252,126.092 C72.9569,126.25 72.6854,127.026 71.9978,127.321 C69.6083,128.347 70.3004,130.852 71.8199,131.954 L75.79822,131.954 C75.7368,131.458 75.72478,130.911 75.77116,130.308 C76.01377,127.154 79.48683,125.917 81.40345,126.587 C82.081146,126.824 81.7058,127.534 81.01814,127.74 C78.75987,128.417 79.03742,130.705 80.23996,131.954 L84.43752,131.954 C84.3652,131.433 84.3483,130.853 84.39774,130.211 C84.64034,127.057 88.1134,125.82 90.03003,126.49 C90.70772,126.727 90.33237,127.437 89.64472,127.643 C87.32666,128.338 87.68047,130.73 88.96396,131.954 L93.6803,131.954 C93.608,131.433 93.5911,130.853 93.6405,130.211 C93.8831,127.057 97.3562,125.82 99.2728,126.49 C99.9505,126.727 99.5751,127.437 98.8875,127.643 C96.5694,128.338 96.9232,130.73 98.2067,131.954 L101.0853,131.954 C101.0853,131.954 112.4177,121.981 112.4177,111.556 Z M66.6347,111.511 L68.1613,116.209 L73.10136,116.209 L69.1048,119.113 L70.6313,123.811 L66.6347,120.908 L62.6381,123.811 L64.1647,119.113 L60.168,116.209 L65.1081,116.209 L66.6347,111.511 Z M85.38655,112.583 L83.859985,107.885 L82.333412,112.583 L77.39333,112.583 L81.38994,115.487 L79.86337,120.185 L83.859985,117.281 L87.8566,120.185 L86.33003,115.487 L90.32664,112.583 L85.38655,112.583 Z M101.0852,111.511 L102.6118,116.209 L107.5519,116.209 L103.5553,119.113 L105.0818,123.811 L101.0852,120.908 L97.0886,123.811 L98.6152,119.113 L94.6185,116.209 L99.5586,116.209 L101.0852,111.511 Z" opacity="0.07"></path>
                    </g>
                </g>
            </g>
        </g>
    </g>
</svg>
