<svg width="22" height="22" viewBox="0 0 22 22" fill="none" xmlns="http://www.w3.org/2000/svg">
    <path d="M15.0333 18.2417L20.35 10.175C20.5333 9.9 20.4417 9.44166 20.1667 9.25833C20.075 9.16666 19.8917 9.16667 19.8 9.16667H15.5833V4.125C15.5833 3.75833 15.3083 3.39166 14.85 3.39166C14.575 3.39166 14.3917 3.48333 14.3 3.66667L8.98332 11.7333C8.79998 12.0083 8.89166 12.4667 9.16666 12.65C9.25833 12.7417 9.44166 12.7417 9.53332 12.7417H13.75V17.7833C13.75 18.15 14.025 18.5167 14.4833 18.5167C14.6667 18.6083 14.85 18.425 15.0333 18.2417Z" fill="#ABA9B2"/>
    <path d="M4.12508 4.58334H8.70842C9.44175 4.58334 10.0834 5.225 10.0834 5.95834C10.0834 6.69167 9.44175 7.33334 8.70842 7.33334H4.12508C3.39175 7.33334 2.75008 6.69167 2.75008 5.95834C2.75008 5.225 3.39175 4.58334 4.12508 4.58334ZM4.12508 15.5833H8.70842C9.44175 15.5833 10.0834 16.225 10.0834 16.9583C10.0834 17.6917 9.44175 18.3333 8.70842 18.3333H4.12508C3.39175 18.3333 2.75008 17.6917 2.75008 16.9583C2.75008 16.225 3.39175 15.5833 4.12508 15.5833ZM2.29175 10.0833H5.95842C6.69175 10.0833 7.33342 10.725 7.33342 11.4583C7.33342 12.1917 6.69175 12.8333 5.95842 12.8333H2.29175C1.55841 12.8333 0.916748 12.1917 0.916748 11.4583C0.916748 10.725 1.55841 10.0833 2.29175 10.0833Z" fill="#DCDCDC"/>
</svg>
