<svg height="511pt" viewBox="-14 1 511 511.9985" width="511pt" xmlns="http://www.w3.org/2000/svg"><path d="m482.871094 125.023438c0-23.160157-18.839844-42-42-42-11.890625 0-22.636719 4.976562-30.285156 12.945312l-163.902344-94.628906c-3.09375-1.785156-6.902344-1.785156-9.996094 0l-163.90625 94.628906c-7.648438-7.96875-18.390625-12.945312-30.28125-12.945312-23.160156 0-42 18.839843-42 42 0 19.710937 13.652344 36.285156 32 40.785156v189.191406c0 3.570312 1.90625 6.871094 5 8.660156l163.851562 94.601563c-1.085937 3.726562-1.679687 7.664062-1.679687 11.738281 0 23.15625 18.839844 42 42 42 23.15625 0 41.996094-18.84375 41.996094-42 0-4.070312-.589844-8-1.675781-11.726562l163.878906-94.613282c3.09375-1.785156 5-5.089844 5-8.660156v-189.191406c18.347656-4.5 32-21.074219 32-40.785156zm-462.371094 0c0-12.132813 9.867188-22 22-22 12.128906 0 21.996094 9.867187 21.996094 22 0 12.128906-9.867188 22-21.996094 22-12.132812 0-22-9.871094-22-22zm221.171875 366.976562c-12.132813 0-22-9.867188-22-22 0-12.128906 9.867187-22 22-22 12.128906 0 22 9.871094 22 22 0 12.132812-9.871094 22-22 22zm30.304687-51.035156c-7.652343-7.980469-18.402343-12.964844-30.304687-12.964844-11.894531 0-22.644531 4.980469-30.292969 12.953125l-158.878906-91.726563v-183.417968c18.34375-4.5 31.996094-21.074219 31.996094-40.785156 0-4.078126-.59375-8.019532-1.683594-11.753907l158.871094-91.722656 158.875 91.722656c-1.089844 3.734375-1.683594 7.671875-1.683594 11.753907 0 19.710937 13.652344 36.285156 31.996094 40.785156v183.417968zm168.894532-293.941406c-12.128906 0-22-9.871094-22-22 0-12.132813 9.871094-22 22-22 12.132812 0 22 9.867187 22 22 0 12.128906-9.867188 22-22 22zm0 0"/><path d="m378.683594 155.128906-132-76.207031c-3.09375-1.785156-6.902344-1.785156-9.996094 0l-132 76.207031c-3.09375 1.789063-5 5.089844-5 8.660156v152.417969c0 3.570313 1.90625 6.875 5 8.660157l132 76.210937c1.546875.890625 3.269531 1.339844 4.996094 1.339844 1.730468 0 3.453125-.449219 5-1.339844l132-76.210937c3.09375-1.785157 5-5.089844 5-8.660157v-152.417969c0-3.570312-1.90625-6.871093-5-8.660156zm-137-56 112 64.660156-112 64.664063-111.996094-64.664063zm10 275.96875v-45.097656c0-5.523438-4.476563-10-10-10-5.519532 0-9.996094 4.476562-9.996094 10v45.097656l-112-64.664062v-129.324219l117 67.550781c1.546875.890625 3.269531 1.339844 4.996094 1.339844 1.730468 0 3.453125-.449219 5-1.339844l117-67.550781v129.324219zm0 0"/><path d="m241.675781 275c-2.640625 0-5.210937 1.066406-7.082031 2.929688-1.859375 1.859374-2.929688 4.4375-2.929688 7.070312 0 2.628906 1.070313 5.207031 2.929688 7.066406 1.871094 1.863282 4.441406 2.933594 7.082031 2.933594 2.628907 0 5.210938-1.070312 7.070313-2.933594 1.859375-1.859375 2.929687-4.4375 2.929687-7.066406 0-2.632812-1.070312-5.210938-2.929687-7.070312-1.859375-1.863282-4.441406-2.929688-7.070313-2.929688zm0 0"/></svg>