<?xml version="1.0" encoding="iso-8859-1"?>
<!-- Generator: Adobe Illustrator 18.1.1, SVG Export Plug-In . SVG Version: 6.00 Build 0)  -->
<svg version="1.1" id="Capa_1" xmlns="http://www.w3.org/2000/svg" xmlns:xlink="http://www.w3.org/1999/xlink" x="0px" y="0px"
	 viewBox="0 0 18.972 18.972" style="enable-background:new 0 0 18.972 18.972;" xml:space="preserve">
<g>
	<g>
		<path style="fill:#030104;" d="M17.873,3.12L7.284,3.126c-0.607-0.001-1.101,0.493-1.1,1.101v0.505
			C5.959,4.635,5.68,4.567,5.324,4.567c-0.445,0-0.814,0.1-0.855,0.113C4.383,4.704,4.305,4.746,4.238,4.805L0.202,8.341
			C0.07,8.458-0.004,8.627,0,8.803l0.035,5.821c0.008,0.31,0.364,0.563,0.675,0.577c0.016,0,1.521,0.063,2.851,0.063
			c0.811,0,1.383-0.021,1.748-0.067c1.064-0.134,1.529-0.448,1.722-0.648c0.2-0.146,0.378-0.29,0.564-0.434
			c-0.155,0.568,0.104,1.187,0.648,1.462c0.176,0.09,0.374,0.138,0.57,0.138c0.349,0,0.669-0.145,0.903-0.385
			c0.115,0.156,0.261,0.292,0.445,0.387c0.177,0.087,0.374,0.135,0.571,0.135c0.478,0,0.91-0.267,1.126-0.693l0.837-1.648
			c0.153-0.302,0.185-0.645,0.079-0.965c-0.034-0.104-0.088-0.201-0.148-0.291l5.239,0.003c0.607,0,1.102-0.494,1.103-1.1
			l0.004-6.924C18.973,3.625,18.48,3.12,17.873,3.12z M10.072,13.012l-0.835,1.65c-0.113,0.228-0.407,0.325-0.636,0.21
			c-0.233-0.119-0.326-0.405-0.209-0.637l0.687-1.353c0,0,0.225-0.549,0.584-0.555c0.07,0.002,0.138,0.017,0.202,0.05
			c0.112,0.058,0.196,0.153,0.235,0.274C10.14,12.772,10.132,12.899,10.072,13.012z M8.756,11.561l-0.755,0.692h0.007
			c-0.473,0.41-1.036,0.865-1.729,1.377c-0.052,0.038-0.056,0.034-0.093,0.086c-0.002,0.002-0.231,0.206-1.021,0.304
			c-0.216,0.027-0.668,0.023-1.603,0.023c-0.813,0-1.825,0.012-2.378-0.007L1.193,9.05l3.714-3.255
			c0.1-0.019,0.252-0.041,0.417-0.041c0.242,0,0.409,0.043,0.499,0.132v4.116c0,0.209,0.11,0.401,0.29,0.509
			c0.021,0.012,0.045,0.01,0.067,0.02v0.044l0.055-0.028c0.153,0.051,0.318,0.058,0.464-0.023c0.923-0.5,2.672-1.295,3.434-1.295
			c0.034,0,0.063,0,0.083,0.004c0.003,0.007,0.006,0.011,0.01,0.017C10.242,9.329,10.318,10.015,8.756,11.561z M11.989,13.15
			l-0.835,1.65c-0.114,0.228-0.409,0.324-0.637,0.209c-0.232-0.117-0.324-0.404-0.207-0.636l0.836-1.65
			c0.081-0.16,0.242-0.261,0.422-0.261c0.075,0,0.147,0.019,0.215,0.053c0.114,0.058,0.197,0.155,0.235,0.273
			C12.058,12.91,12.049,13.037,11.989,13.15z M18.236,11.155c-0.001,0.205-0.165,0.367-0.367,0.367l-7.476-0.002
			c0.611-0.754,0.962-1.43,1.02-2.016c0.043-0.464-0.094-0.76-0.195-0.907c-0.125-0.236-0.419-0.557-1.085-0.557
			c-0.871,0-2.229,0.57-3.124,0.996V7.393L18.237,7.39L18.236,11.155z M18.237,5.214L6.917,5.209V4.225
			c0-0.203,0.164-0.367,0.366-0.367l10.59-0.008c0.2,0,0.367,0.178,0.367,0.38L18.237,5.214z"/>
		<polygon style="fill:#030104;" points="17.403,10.842 17.395,9.847 14.496,9.845 14.505,10.842 		"/>
	</g>
</g>
<g>
</g>
<g>
</g>
<g>
</g>
<g>
</g>
<g>
</g>
<g>
</g>
<g>
</g>
<g>
</g>
<g>
</g>
<g>
</g>
<g>
</g>
<g>
</g>
<g>
</g>
<g>
</g>
<g>
</g>
</svg>
