<svg width="25" height="25" viewBox="0 0 25 25" fill="none" xmlns="http://www.w3.org/2000/svg">
    <rect width="25" height="25" />
    <path opacity="0.3" d="M20.6754 15.6553H22.4049C22.6343 15.6553 22.8544 15.5533 23.0166 15.3716C23.1788 15.1899 23.27 14.9435 23.27 14.6866C23.27 14.4296 23.1788 14.1832 23.0166 14.0015C22.8544 13.8198 22.6343 13.7178 22.4049 13.7178H20.6754C20.4459 13.7178 20.2259 13.8198 20.0637 14.0015C19.9014 14.1832 19.8103 14.4296 19.8103 14.6866C19.8103 14.9435 19.9014 15.1899 20.0637 15.3716C20.2259 15.5533 20.4459 15.6553 20.6754 15.6553Z" fill="black"/>
    <path d="M23.27 5H9.43079C8.97203 5.00034 8.53215 5.20458 8.20775 5.56787C7.88336 5.93117 7.70098 6.4238 7.70068 6.93757V7.90572H25.0001V6.93757C25.0001 6.4237 24.8178 5.93087 24.4933 5.5675C24.1689 5.20414 23.7288 5 23.27 5Z" fill="#DCDCDC"/>
    <path d="M14.1816 13.4999C14.1048 13.0471 13.8477 12.705 13.4422 12.5114C12.3616 12.0019 10.3454 12.684 9.60831 13.2261C9.02307 13.656 8.3349 14.0815 7.70246 14.3515C7.53607 14.4235 7.36634 14.4854 7.194 14.5369C7.12062 14.5577 7.04372 14.5575 6.97042 14.5363C6.89711 14.5151 6.82977 14.4735 6.77462 14.4154C6.71946 14.3573 6.67827 14.2846 6.65485 14.204C6.63143 14.1233 6.62653 14.0374 6.64062 13.9541V13.9471C6.65142 13.8834 6.66109 13.8248 6.67019 13.7655C6.6895 13.6348 6.75356 13.5176 6.84878 13.4388C7.00802 13.3114 7.17182 13.1662 7.31059 13.042C7.3635 12.9945 7.42532 12.9611 7.49142 12.9442C7.55752 12.9273 7.62617 12.9274 7.69222 12.9445H7.70132V8.25856C6.77768 7.95474 6.44725 8.02098 6.3062 8.04964C5.34616 8.242 3.65814 9.7541 1.71532 11.5605C1.3081 11.9388 0.95321 12.2694 0.691589 12.4968C0.472273 12.6838 0.241138 12.8529 0 13.0025L0 20.9999H5.64077C6.361 21.0044 7.06553 20.7643 7.66151 20.3114C8.10285 19.9719 8.33603 19.6279 8.5641 19.2923C8.63576 19.1872 8.70685 19.0815 8.78818 18.9738C8.90754 18.818 9.03864 18.6739 9.18005 18.5432C9.7448 18.012 10.6064 17.4655 11.496 17.091C11.9782 16.8885 13.1703 16.3018 13.817 15.2471C14.1565 14.6904 14.2822 14.0872 14.1816 13.4999Z" fill="#ABA9B2"/>
    <path d="M13.2516 10.8121H7.70068V14.3516C8.33312 14.0815 9.0213 13.656 9.60653 13.2261C10.3459 12.684 12.3598 12 13.4404 12.5114C13.8476 12.7025 14.1047 13.0471 14.1798 13.5C14.2804 14.0872 14.1548 14.6904 13.8152 15.2445C13.1686 16.2993 11.9765 16.8859 11.4942 17.0885C10.6047 17.463 9.74303 18.0095 9.17827 18.5407C9.26131 18.5545 9.34514 18.5615 9.42909 18.5617H23.27C23.7288 18.5617 24.1689 18.3576 24.4933 17.9942C24.8178 17.6309 25.0001 17.138 25.0001 16.6242V10.8121H13.2516Z" fill="#DCDCDC"/>
    <path d="M9.61393 7.90634H7.70068V8.25857V10.8121H9.38757H13.251H25.0001V7.90634H9.61393Z" fill="#ABA9B2"/>
    <path d="M20.6754 15.6553H22.4049C22.6343 15.6553 22.8544 15.5533 23.0166 15.3716C23.1788 15.1899 23.27 14.9435 23.27 14.6866C23.27 14.4296 23.1788 14.1832 23.0166 14.0015C22.8544 13.8198 22.6343 13.7178 22.4049 13.7178H20.6754C20.4459 13.7178 20.2259 13.8198 20.0637 14.0015C19.9014 14.1832 19.8103 14.4296 19.8103 14.6866C19.8103 14.9435 19.9014 15.1899 20.0637 15.3716C20.2259 15.5533 20.4459 15.6553 20.6754 15.6553Z" fill="#ABA9B2"/>
</svg>
