<svg width="22" height="22" viewBox="0 0 22 22" fill="none" xmlns="http://www.w3.org/2000/svg">
    <path d="M8.25 19.25C11.2876 19.25 13.75 16.7876 13.75 13.75C13.75 10.7124 11.2876 8.25 8.25 8.25C5.21243 8.25 2.75 10.7124 2.75 13.75C2.75 16.7876 5.21243 19.25 8.25 19.25Z" fill="#ABA9B2"/>
    <path d="M8.06665 6.41667C8.98332 4.76667 10.8166 3.66667 12.8333 3.66667C15.8583 3.66667 18.3333 6.14167 18.3333 9.16667C18.3333 11.1833 17.2333 13.0167 15.5833 13.9333C15.5833 13.8417 15.5833 13.8417 15.5833 13.75C15.5833 9.71667 12.2833 6.41667 8.24998 6.41667C8.15831 6.41667 8.15832 6.41667 8.06665 6.41667Z" fill="#DCDCDC"/>
</svg>
