<svg width="22" height="22" viewBox="0 0 22 22" fill="none" xmlns="http://www.w3.org/2000/svg">
    <path d="M2.38345 9.80833L4.30844 7.88334C4.85844 7.33334 5.68344 7.33334 6.23344 7.88334L8.15844 9.80833C8.70844 10.3583 8.70844 11.1833 8.15844 11.7333L6.23344 13.6583C5.68344 14.2083 4.85844 14.2083 4.30844 13.6583L2.38345 11.7333C1.83345 11.1833 1.83345 10.3583 2.38345 9.80833ZM13.3834 9.80833L15.3084 7.88334C15.8584 7.33334 16.6834 7.33334 17.2334 7.88334L19.1584 9.80833C19.7084 10.3583 19.7084 11.1833 19.1584 11.7333L17.2334 13.6583C16.6834 14.2083 15.8584 14.2083 15.3084 13.6583L13.3834 11.7333C12.8334 11.1833 12.8334 10.3583 13.3834 9.80833Z" fill="#DCDCDC"/>
    <path d="M7.88345 15.3083L9.80844 13.3833C10.3584 12.8333 11.1834 12.8333 11.7334 13.3833L13.6584 15.3083C14.2084 15.8583 14.2084 16.6833 13.6584 17.2333L11.7334 19.1583C11.1834 19.7083 10.3584 19.7083 9.80844 19.1583L7.88345 17.2333C7.33345 16.6833 7.33345 15.8583 7.88345 15.3083ZM7.88345 4.30833L9.80844 2.38334C10.3584 1.83334 11.1834 1.83334 11.7334 2.38334L13.6584 4.30833C14.2084 4.85833 14.2084 5.68334 13.6584 6.23334L11.7334 8.15833C11.1834 8.70833 10.3584 8.70833 9.80844 8.15833L7.88345 6.23334C7.33345 5.68334 7.33345 4.85833 7.88345 4.30833Z" fill="#ABA9B2"/>
</svg>
