<?xml version="1.0" encoding="iso-8859-1"?>
<!-- Generator: Adobe Illustrator 21.0.0, SVG Export Plug-In . SVG Version: 6.00 Build 0)  -->
<svg version="1.1" id="Capa_1" xmlns="http://www.w3.org/2000/svg" xmlns:xlink="http://www.w3.org/1999/xlink" x="0px" y="0px"
	 viewBox="0 0 512 512" style="enable-background:new 0 0 512 512;" xml:space="preserve">
<g>
	<g>
		<path d="M345.993,421.111h-15v-44.999c0-8.284-6.716-15-15-15H74.998c-8.284,0-15,6.716-15,15v44.999h-15
			C20.187,421.111,0,441.297,0,466.11v30.999c0,8.284,6.716,14.8,15,14.8h360.992c8.284,0,15-6.516,15-14.8V466.11
			C390.992,441.297,370.805,421.111,345.993,421.111z M89.998,390.911h210.995v30.199H89.998V390.911z M360.992,482.109H29.999v-16
			c0-8.271,6.729-15.2,15-15.2c168.437,0,242.639,0.389,300.994,0c8.271,0,15,6.929,15,15.2V482.109z"/>
	</g>
</g>
<g>
	<g>
		<path d="M503.758,408.889c-0.023-0.032-0.046-0.064-0.069-0.096L369.571,221.812c10.11-10.185,19.027-20.993,26.585-32.211
			c11.879,2.963,24.618,0.831,35.029-6.513l3.638-2.566c19.273-13.596,23.891-40.336,10.336-59.552L373.384,18.221
			C359.757-1.096,333.096-5.704,313.776,7.924l-3.638,2.566c-10.175,7.178-16.793,18.554-17.95,31.831
			c-26.527,6.806-53.341,19.459-78.287,37.056c-24.959,17.607-45.884,38.635-61.196,61.357c-1.023-0.255-2.056-0.485-3.105-0.666
			c-11.259-1.945-22.601,0.612-31.937,7.198l-3.636,2.565c-19.319,13.628-23.924,40.289-10.296,59.609l71.735,101.693
			c13.602,19.281,40.344,23.885,59.609,10.296l3.636-2.565c9.336-6.586,15.549-16.414,17.494-27.671
			c0.181-1.049,0.31-2.099,0.414-3.149c13.161-3.373,26.389-8.178,39.429-14.325l134.207,187.105
			c14.244,20.129,42.221,25.202,62.671,10.777C513.249,457.263,518.096,429.214,503.758,408.889z M327.431,35.004
			c3.727-2.629,7.155-5.756,13.175-4.715c3.363,0.581,6.297,2.436,8.225,5.168l71.775,102.749
			c4.061,5.756,2.681,13.742-3.074,17.802l-3.638,2.566c-5.756,4.06-13.743,2.681-17.802-3.075L324.356,53.806
			C320.258,47.997,321.715,39.036,327.431,35.004z M221.419,294.348l-3.636,2.565c-5.757,4.061-13.744,2.68-17.802-3.075
			l-71.736-101.693c-4.069-5.768-2.696-13.732,3.076-17.802c3.723-2.627,7.154-5.755,13.174-4.715
			c3.363,0.581,6.297,2.436,8.264,5.224l71.736,101.694C228.564,282.315,227.191,290.277,221.419,294.348z M248.878,259.066
			l-71.472-101.318c13.284-19.802,31.685-38.265,53.789-53.858c22.103-15.592,45.67-26.734,68.78-32.605l71.471,101.318
			c-14.034,20.92-32.933,39.145-53.789,53.857C296.856,241.134,273.341,252.851,248.878,259.066z M322.555,259.201
			c4.174-2.612,8.312-5.346,12.395-8.226c4.155-2.931,8.185-5.967,12.109-9.079l52.713,73.489l-24.513,17.292L322.555,259.201z
			 M392.744,357.055l24.513-17.292l17.486,24.377l-24.513,17.292L392.744,357.055z M481.769,437.381
			c-2.258,13.071-19.316,17.04-27.037,6.094c-0.023-0.032-0.045-0.064-0.069-0.096l-26.947-37.568l24.513-17.292l27.043,37.703
			C481.561,429.487,482.448,433.449,481.769,437.381z"/>
	</g>
</g>
<g>
</g>
<g>
</g>
<g>
</g>
<g>
</g>
<g>
</g>
<g>
</g>
<g>
</g>
<g>
</g>
<g>
</g>
<g>
</g>
<g>
</g>
<g>
</g>
<g>
</g>
<g>
</g>
<g>
</g>
</svg>
