<svg width="22" height="22" viewBox="0 0 22 22" fill="none" xmlns="http://www.w3.org/2000/svg">
    <path fill-rule="evenodd" clip-rule="evenodd" d="M21 11C21 16.5228 16.5228 21 11 21C5.47715 21 1 16.5228 1 11C1 5.47715 5.47715 1 11 1C16.5228 1 21 5.47715 21 11ZM13.4987 5.77749C13.8426 5.55047 14.298 5.81342 14.2733 6.2247L13.9017 12.4171C13.8922 12.5742 13.8094 12.7177 13.678 12.8044L8.5011 16.2225C8.15727 16.4495 7.70182 16.1866 7.72651 15.7753L8.09819 9.58288C8.10762 9.42579 8.19047 9.2823 8.3218 9.19559L13.4987 5.77749Z" fill="#B3B3B3"/>
</svg>
