<svg width="22" height="22" viewBox="0 0 22 22" fill="none" xmlns="http://www.w3.org/2000/svg">
    <path opacity="0.3" fill-rule="evenodd" clip-rule="evenodd" d="M11 21C16.5228 21 21 16.5228 21 11C21 5.47715 16.5228 1 11 1C5.47715 1 1 5.47715 1 11C1 16.5228 5.47715 21 11 21Z" fill="black"/>
    <path fill-rule="evenodd" clip-rule="evenodd" d="M9.56245 12.2519V13.9698H10.8672C13.4984 13.9698 15.5642 11.9475 15.5642 9.33801C15.5642 6.72854 13.4984 4.70621 10.8672 4.70621C8.23598 4.70621 6.19189 6.72854 6.19189 9.33801H8.04027C8.04027 7.68535 9.19278 6.42411 10.8672 6.42411C12.5198 6.42411 13.7159 7.68535 13.7159 9.33801C13.7159 10.9907 12.5198 12.2519 10.8672 12.2519H9.56245ZM10.9859 15.142C10.4337 15.142 9.98595 15.5897 9.98595 16.142V16.213C9.98595 16.7653 10.4337 17.213 10.9859 17.213H11.057C11.6092 17.213 12.057 16.7653 12.057 16.213V16.142C12.057 15.5897 11.6092 15.142 11.057 15.142H10.9859Z" fill="white"/>
</svg>
