<svg width="22" height="22" viewBox="0 0 22 22" fill="none" xmlns="http://www.w3.org/2000/svg">
    <g clip-path="url(#clip0)">
        <path d="M22 13.5351V15.9843C22 16.459 21.6153 16.8437 21.1406 16.8437H18.7344C18.2597 16.8437 17.875 16.459 17.875 15.9843C17.875 15.5096 18.2597 15.1249 18.7344 15.1249H20.2812V13.5351C20.2812 13.0604 20.666 12.6757 21.1406 12.6757C21.6153 12.6757 22 13.0604 22 13.5351ZM10.1406 9.32416C10.6153 9.32416 11 8.93946 11 8.46479V6.53119H11.8594C12.334 6.53119 12.7188 6.14649 12.7188 5.67182V0.859317C12.7188 0.37424 12.3169 -0.0168431 11.828 0.000445124C11.3624 0.017062 11 0.413851 11 0.879962V1.54682H10.1406C9.66595 1.54682 9.28125 1.93152 9.28125 2.40619C9.28125 2.88086 9.66595 3.26557 10.1406 3.26557H11V4.81244H10.1406C9.66595 4.81244 9.28125 5.19715 9.28125 5.67182V8.46479C9.28125 8.93946 9.66595 9.32416 10.1406 9.32416ZM0.859375 12.6757C1.33405 12.6757 1.71875 12.291 1.71875 11.8163V10.957H2.62109C3.09576 10.957 3.48047 10.5723 3.48047 10.0976C3.48047 9.62293 3.09576 9.23822 2.62109 9.23822H0.859375C0.384705 9.23822 0 9.62293 0 10.0976V11.8163C0 12.291 0.384705 12.6757 0.859375 12.6757ZM13.5781 10.957H15.8984V13.5145C15.8984 13.9806 16.2608 14.3774 16.7264 14.394C17.2154 14.4113 17.6172 14.0202 17.6172 13.5351V12.6757H18.5195C18.9942 12.6757 19.3789 12.291 19.3789 11.8163C19.3789 11.3417 18.9942 10.957 18.5195 10.957H17.6172V10.0976C17.6172 9.62293 17.2325 9.23822 16.7578 9.23822H13.5781C13.1035 9.23822 12.7188 9.62293 12.7188 10.0976C12.7188 10.5723 13.1035 10.957 13.5781 10.957ZM21.1406 9.23822C20.666 9.23822 20.2812 9.62293 20.2812 10.0976C20.2812 10.5723 20.666 10.957 21.1406 10.957C21.6153 10.957 22 10.5723 22 10.0976C22 9.62293 21.6153 9.23822 21.1406 9.23822ZM13.5781 12.6757C13.1035 12.6757 12.7188 13.0604 12.7188 13.5351V15.1249H12.2891C11.8144 15.1249 11.4297 15.5096 11.4297 15.9843C11.4297 16.459 11.8144 16.8437 12.2891 16.8437H13.5781C14.0528 16.8437 14.4375 16.459 14.4375 15.9843V13.5351C14.4375 13.0604 14.0528 12.6757 13.5781 12.6757ZM13.5781 20.2812H12.7188V19.4218C12.7188 18.9471 12.334 18.5624 11.8594 18.5624H11V17.7031C11 17.2284 10.6153 16.8437 10.1406 16.8437C9.66595 16.8437 9.28125 17.2284 9.28125 17.7031V19.4218C9.28125 19.8965 9.66595 20.2812 10.1406 20.2812H11V21.1406C11 21.6152 11.3847 21.9999 11.8594 21.9999H13.5781C14.0528 21.9999 14.4375 21.6152 14.4375 21.1406C14.4375 20.6659 14.0528 20.2812 13.5781 20.2812ZM17.0156 18.5624C17.0156 18.0878 16.6309 17.7031 16.1562 17.7031H15.7266C15.2519 17.7031 14.8672 18.0878 14.8672 18.5624C14.8672 19.0371 15.2519 19.4218 15.7266 19.4218H16.1562C16.6309 19.4218 17.0156 19.0371 17.0156 18.5624ZM21.1406 20.2812H20.4531V19.4218C20.4531 18.9471 20.0684 18.5624 19.5938 18.5624C19.1191 18.5624 18.7344 18.9471 18.7344 19.4218V20.2812H17.0156C16.541 20.2812 16.1562 20.6659 16.1562 21.1406C16.1562 21.6152 16.541 21.9999 17.0156 21.9999H21.1406C21.6153 21.9999 22 21.6152 22 21.1406C22 20.6659 21.6153 20.2812 21.1406 20.2812ZM10.1406 14.2656C10.6153 14.2656 11 13.8809 11 13.4062V11.8163C11 11.3417 10.6153 10.957 10.1406 10.957H7.04688V10.1182C7.04688 9.65213 6.68449 9.25534 6.21889 9.23873C5.72995 9.22144 5.32812 9.61252 5.32812 10.0976V10.957H4.89844C4.42377 10.957 4.03906 11.3417 4.03906 11.8163C4.03906 12.291 4.42377 12.6757 4.89844 12.6757H9.28125V13.4062C9.28125 13.8809 9.66595 14.2656 10.1406 14.2656ZM0 5.15619V2.57807C0 1.15641 1.15646 -5.84184e-05 2.57812 -5.84184e-05H5.15625C6.57791 -5.84184e-05 7.73438 1.15641 7.73438 2.57807V5.15619C7.73438 6.57785 6.57791 7.73432 5.15625 7.73432H2.57812C1.15646 7.73432 0 6.57785 0 5.15619ZM1.71875 5.15619C1.71875 5.63002 2.10429 6.01557 2.57812 6.01557H5.15625C5.63008 6.01557 6.01562 5.63002 6.01562 5.15619V2.57807C6.01562 2.10424 5.63008 1.71869 5.15625 1.71869H2.57812C2.10429 1.71869 1.71875 2.10424 1.71875 2.57807V5.15619ZM3.86719 4.7265C4.34186 4.7265 4.72656 4.3418 4.72656 3.86713C4.72656 3.39246 4.34186 3.00775 3.86719 3.00775C3.39252 3.00775 3.00781 3.39246 3.00781 3.86713C3.00781 4.3418 3.39252 4.7265 3.86719 4.7265ZM22 2.57807V5.15619C22 6.57785 20.8435 7.73432 19.4219 7.73432H16.8438C15.4221 7.73432 14.2656 6.57785 14.2656 5.15619V2.57807C14.2656 1.15641 15.4221 -5.84184e-05 16.8438 -5.84184e-05H19.4219C20.8435 -5.84184e-05 22 1.15641 22 2.57807ZM20.2812 2.57807C20.2812 2.10424 19.8957 1.71869 19.4219 1.71869H16.8438C16.3699 1.71869 15.9844 2.10424 15.9844 2.57807V5.15619C15.9844 5.63002 16.3699 6.01557 16.8438 6.01557H19.4219C19.8957 6.01557 20.2812 5.63002 20.2812 5.15619V2.57807ZM18.1328 3.00775C17.6581 3.00775 17.2734 3.39246 17.2734 3.86713C17.2734 4.3418 17.6581 4.7265 18.1328 4.7265C18.6075 4.7265 18.9922 4.3418 18.9922 3.86713C18.9922 3.39246 18.6075 3.00775 18.1328 3.00775ZM7.73438 16.8437V19.4218C7.73438 20.8435 6.57791 21.9999 5.15625 21.9999H2.57812C1.15646 21.9999 0 20.8435 0 19.4218V16.8437C0 15.422 1.15646 14.2656 2.57812 14.2656H5.15625C6.57791 14.2656 7.73438 15.422 7.73438 16.8437ZM6.01562 16.8437C6.01562 16.3699 5.63008 15.9843 5.15625 15.9843H2.57812C2.10429 15.9843 1.71875 16.3699 1.71875 16.8437V19.4218C1.71875 19.8956 2.10429 20.2812 2.57812 20.2812H5.15625C5.63008 20.2812 6.01562 19.8956 6.01562 19.4218V16.8437ZM3.86719 17.2734C3.39252 17.2734 3.00781 17.6581 3.00781 18.1328C3.00781 18.6074 3.39252 18.9921 3.86719 18.9921C4.34186 18.9921 4.72656 18.6074 4.72656 18.1328C4.72656 17.6581 4.34186 17.2734 3.86719 17.2734Z" fill="#F5F5F5"/>
    </g>
    <defs>
        <clipPath id="clip0">
            <rect width="22" height="22" fill="white"/>
        </clipPath>
    </defs>
</svg>
