<?xml version="1.0" encoding="UTF-8"?>
<svg width="39px" height="39px" viewBox="0 0 39 39" version="1.1" xmlns="http://www.w3.org/2000/svg" xmlns:xlink="http://www.w3.org/1999/xlink">
    <!-- Generator: Sketch 52.6 (67491) - http://www.bohemiancoding.com/sketch -->
    <title>МАСТЕРНОДА</title>
    <desc>Created with Sketch.</desc>
    <defs>
        <rect id="path-1" x="0.0211182" y="0.892578" width="19.1502" height="21.5439" rx="1"></rect>
    </defs>
    <g id="Page-1" stroke="none" stroke-width="1" fill="none" fill-rule="evenodd">
        <g id="МАСТЕРНОДА" transform="translate(1.000000, 1.000000)">
            <g fill="#FFFFFF" id="Oval" stroke="#B38340" stroke-width="3">
                <circle cx="18.3848" cy="18.2563" r="17.5"></circle>
            </g>
            <g id="Group-30" transform="translate(8.000000, 6.000000)">
                <g id="Clipped">
                    <mask id="mask-2" fill="white">
                        <use xlink:href="#path-1"></use>
                    </mask>
                    <g id="Rectangle"></g>
                    <rect id="Rectangle" stroke="#B38340" stroke-width="4" fill="#FFFFFF" mask="url(#mask-2)" x="0.0211182" y="0.892578" width="19.1502" height="21.5439" rx="1"></rect>
                </g>
                <rect id="Rectangle" stroke="#B38340" fill="#FFFFFF" x="3.88477" y="5.75635" width="4" height="1" rx="0.5"></rect>
                <rect id="Rectangle" stroke="#B38340" fill="#FFFFFF" x="3.88477" y="9.75635" width="4" height="1" rx="0.5"></rect>
                <rect id="Rectangle" stroke="#B38340" fill="#FFFFFF" x="9.88477" y="9.75635" width="5" height="1" rx="0.5"></rect>
                <rect id="Rectangle" stroke="#B38340" fill="#FFFFFF" transform="translate(12.884800, 14.256300) scale(-1, 1) translate(-12.884800, -14.256300) " x="10.8848" y="13.7563" width="4" height="1" rx="0.5"></rect>
                <rect id="Rectangle" stroke="#B38340" fill="#FFFFFF" transform="translate(6.384770, 14.256300) scale(-1, 1) translate(-6.384770, -14.256300) " x="3.88477" y="13.7563" width="5" height="1" rx="0.5"></rect>
            </g>
            <g id="Vector" transform="translate(22.000000, 22.000000)" fill="#B38340" stroke="#FFFFFF">
                <path d="M6.87764547,1.68236652 L6.87783533,1.6826575 C7.08043188,1.99340509 6.97600994,2.39603074 6.71464295,2.61164368 C6.62808493,2.68305083 6.59482147,2.79195745 6.6254595,2.89070602 C6.65688544,2.99167271 6.7525993,3.06575041 6.86014873,3.07140348 C7.22168718,3.08976342 7.50718401,3.38427639 7.51508091,3.74536886 C7.52183684,4.04261848 7.49485321,4.3390399 7.43492867,4.62637798 C7.36071991,4.9837834 7.02005638,5.22218263 6.65817848,5.16879912 C6.56523819,5.15507873 6.43604931,5.22029979 6.392976,5.30188664 C6.34279333,5.39761989 6.3588641,5.51755976 6.43257371,5.59724915 C6.68207805,5.86548264 6.67830425,6.28127568 6.42450743,6.54565462 C6.21941097,6.7589191 5.99174618,6.94783494 5.74499845,7.10924983 C5.44273089,7.30724105 5.03949264,7.23867867 4.81886654,6.95218702 C4.75240723,6.86560101 4.6376021,6.82875 4.53738912,6.85986364 C4.4496909,6.88718297 4.361406,7.00168491 4.35687103,7.09583147 C4.33890289,7.45660409 4.0460907,7.74201611 3.68421437,7.75205956 C3.38479643,7.75940612 3.08508499,7.73241963 2.79465324,7.67189767 C2.43686537,7.59790005 2.19921196,7.25823275 2.25127638,6.89611988 C2.26716049,6.78744129 2.21272142,6.6800906 2.11751134,6.63004855 C2.0311114,6.58469314 1.90596947,6.60156406 1.8108073,6.67973459 C1.53521786,6.92237495 1.13603772,6.910574 0.874735001,6.66153643 C0.660521691,6.45612076 0.468991927,6.22478823 0.305478856,5.97435499 C0.100440831,5.66075156 0.210402148,5.25789428 0.481813947,5.03420536 C0.555011752,4.97689796 0.58877006,4.86687754 0.55739466,4.76540784 C0.526170195,4.6646677 0.430877775,4.59092364 0.321688278,4.58522286 C-0.0387680646,4.5660319 -0.324036407,4.27236197 -0.331883743,3.9121928 C-0.339019596,3.61723351 -0.312268697,3.32079666 -0.252671609,3.03173492 C-0.179011813,2.6734351 0.161163884,2.43513328 0.524031494,2.48776624 C0.617754849,2.50154357 0.746598613,2.43651162 0.789814017,2.35423789 C0.840151133,2.25867018 0.82421794,2.13919577 0.750257916,2.0592367 C0.500926784,1.7908602 0.50487894,1.37451105 0.758182975,1.11137884 C0.862762616,1.0024207 0.973675859,0.899570853 1.09052505,0.803167975 C1.20175067,0.71141 1.31773701,0.62602798 1.4380284,0.547397229 C1.74040236,0.349333061 2.14354181,0.418076239 2.3645854,0.705032881 C2.43052339,0.791128165 2.54524154,0.827934734 2.64517743,0.796893659 C2.73393965,0.7692381 2.82141757,0.655569576 2.8261406,0.558751619 C2.84545819,0.199329367 3.13634326,-0.0838384531 3.49868809,-0.0954306648 C3.79708548,-0.102822391 4.09629364,-0.0758289687 4.38789082,-0.0153479162 C4.74609555,0.0583653182 4.98471671,0.398704492 4.93172397,0.76051667 C4.91580538,0.869434944 4.97020775,0.976883162 5.06540653,1.02688846 C5.15337271,1.07314668 5.27206967,1.06068947 5.34062907,1.00434644 L5.3522494,0.995258136 C5.61766315,0.737430849 6.04204145,0.740563452 6.30816229,0.994941793 C6.5225214,1.20047139 6.71392504,1.43162909 6.87764547,1.68236652 Z M3.18225428,3.32366258 C2.90929637,3.54884429 2.87033093,3.95511789 3.09551326,4.22807655 C3.32068896,4.50102837 3.72697545,4.53999645 3.99993265,4.31481995 C4.27286626,4.08965464 4.31182461,3.68336228 4.08664742,3.41041428 C3.86146707,3.13745801 3.45519582,3.09849072 3.18225735,3.32366005 Z" id="Shape"></path>
            </g>
        </g>
    </g>
</svg>
