<?xml version="1.0" encoding="UTF-8"?>
<svg width="23px" height="21px" viewBox="0 0 23 21" version="1.1" xmlns="http://www.w3.org/2000/svg" xmlns:xlink="http://www.w3.org/1999/xlink">
    <g id="Page-1" stroke="none" stroke-width="1" fill="none" fill-rule="evenodd">
        <g id="CONVERT" transform="translate(-25.000000, -39.000000)" fill="#B38340" stroke="#BA8230">
            <g transform="translate(26.000000, 40.000000)" id="Path">
                <path d="M1.68243,8.15797 C1.79173,8.20169 1.91849,8.20169 2.02779,8.14924 L5.44186,6.59738 C5.66042,6.49247 5.75222,6.23018 5.6473,6.01163 C5.54677,5.8018 5.29761,5.70561 5.08339,5.8018 L2.69223,6.89028 C3.83316,3.4762 7.01118,1.19433 10.67,1.19433 C14.5038,1.19433 17.8566,3.75599 18.8227,7.42357 C18.8839,7.65524 19.1243,7.79515 19.356,7.73393 C19.5876,7.67274 19.7276,7.4323 19.6663,7.20063 C18.5997,3.15273 14.9015,0.32007 10.67,0.32007 C6.63521,0.32007 3.12495,2.83799 1.85726,6.60615 L0.851854,4.09261 C0.777554,3.86528 0.528385,3.73853 0.301058,3.81283 C0.0737322,3.88713 -0.0530246,4.1363 0.0212754,4.36362 C0.0256605,4.38112 0.0343896,4.39858 0.0431188,4.41608 L1.43761,7.91318 C1.48134,8.02248 1.56875,8.11428 1.68243,8.15797 Z"></path>
                <path d="M20.9734,14.6102 C20.9691,14.6015 20.9647,14.5927 20.9647,14.584 L19.5702,11.0868 C19.5265,10.9776 19.4391,10.8858 19.3254,10.8421 C19.2161,10.7983 19.0894,10.8027 18.9801,10.8508 L15.566,12.4027 C15.3431,12.4945 15.2381,12.7524 15.3299,12.9753 C15.4217,13.1982 15.6796,13.3031 15.9026,13.2113 C15.9113,13.207 15.9201,13.2026 15.9288,13.1982 L18.32,12.1098 C17.1703,15.5238 13.9879,17.8057 10.3334,17.8057 C6.49971,17.8057 3.14686,15.244 2.1808,11.5765 C2.11961,11.3448 1.87917,11.2049 1.6475,11.2661 C1.41583,11.3273 1.27592,11.5677 1.33714,11.7994 C2.39939,15.8517 6.10198,18.68 10.3335,18.68 C14.3683,18.68 17.8741,16.162 19.1462,12.3939 L20.1516,14.9074 C20.2347,15.1348 20.4839,15.2528 20.7112,15.1697 C20.9384,15.0867 21.0565,14.8375 20.9734,14.6102 Z"></path>
            </g>
        </g>
    </g>
</svg>
