<svg width="38" height="38" viewBox="0 0 38 38" fill="none" xmlns="http://www.w3.org/2000/svg">
    <circle cx="19" cy="19" r="17.5" fill="white" stroke="#B38340" stroke-width="3"/>
    <rect x="7.40918" y="25.479" width="23.8462" height="1.65734" rx="0.828671" fill="#B38340" stroke="#B38340"/>
    <mask id="path-3-inside-1" fill="white">
        <rect x="9.3938" y="10.3638" width="19.8769" height="17.2727" rx="1"/>
    </mask>
    <rect x="9.3938" y="10.3638" width="19.8769" height="17.2727" rx="1" fill="white" stroke="#B38340" stroke-width="4" mask="url(#path-3-inside-1)"/>
    <g clip-path="url(#clip0)">
        <path d="M25.671 14.7365C25.1998 14.2158 24.3955 14.1761 23.8749 14.6473L18.2605 19.7305L15.1469 16.7744C14.6374 16.2909 13.8325 16.312 13.3492 16.8212C12.8659 17.3305 12.8868 18.1352 13.3961 18.6187L17.3086 22.3325C17.5546 22.5663 17.8692 22.6821 18.1836 22.6821C18.3602 22.6821 18.5366 22.6443 18.7006 22.5712C18.8907 22.5213 19.0721 22.4264 19.2281 22.285L25.5817 16.5324C26.1025 16.0612 26.1423 15.2571 25.671 14.7365Z" fill="#B38340"/>
    </g>
    <defs>
        <clipPath id="clip0">
            <rect width="13" height="13" fill="white" transform="translate(13 12)"/>
        </clipPath>
    </defs>
</svg>
