<svg width="38" height="38" viewBox="0 0 38 38" fill="none" xmlns="http://www.w3.org/2000/svg">
    <circle cx="19" cy="19" r="17.5" fill="white" stroke="#B38340" stroke-width="3"/>
    <path d="M9.018 14.9C9.824 14.9 10.5217 15.0343 11.111 15.303C11.709 15.5717 12.1683 15.953 12.489 16.447C12.8097 16.941 12.97 17.526 12.97 18.202C12.97 18.8693 12.8097 19.4543 12.489 19.957C12.1683 20.451 11.709 20.8323 11.111 21.101C10.5217 21.361 9.824 21.491 9.018 21.491H7.185V24H5.079V14.9H9.018ZM8.901 19.775C9.53367 19.775 10.0147 19.6407 10.344 19.372C10.6733 19.0947 10.838 18.7047 10.838 18.202C10.838 17.6907 10.6733 17.3007 10.344 17.032C10.0147 16.7547 9.53367 16.616 8.901 16.616H7.185V19.775H8.901ZM18.9555 24.156C18.0282 24.156 17.1875 23.9567 16.4335 23.558C15.6882 23.1507 15.0988 22.5917 14.6655 21.881C14.2408 21.1617 14.0285 20.3513 14.0285 19.45C14.0285 18.5487 14.2408 17.7427 14.6655 17.032C15.0988 16.3127 15.6882 15.7537 16.4335 15.355C17.1875 14.9477 18.0325 14.744 18.9685 14.744C19.7572 14.744 20.4678 14.8827 21.1005 15.16C21.7418 15.4373 22.2792 15.836 22.7125 16.356L21.3605 17.604C20.7452 16.8933 19.9825 16.538 19.0725 16.538C18.5092 16.538 18.0065 16.6637 17.5645 16.915C17.1225 17.1577 16.7758 17.5 16.5245 17.942C16.2818 18.384 16.1605 18.8867 16.1605 19.45C16.1605 20.0133 16.2818 20.516 16.5245 20.958C16.7758 21.4 17.1225 21.7467 17.5645 21.998C18.0065 22.2407 18.5092 22.362 19.0725 22.362C19.9825 22.362 20.7452 22.0023 21.3605 21.283L22.7125 22.531C22.2792 23.0597 21.7418 23.4627 21.1005 23.74C20.4592 24.0173 19.7442 24.156 18.9555 24.156ZM28.3512 24.156C27.4066 24.156 26.5529 23.9523 25.7902 23.545C25.0362 23.1377 24.4426 22.5787 24.0092 21.868C23.5846 21.1487 23.3722 20.3427 23.3722 19.45C23.3722 18.5573 23.5846 17.7557 24.0092 17.045C24.4426 16.3257 25.0362 15.7623 25.7902 15.355C26.5529 14.9477 27.4066 14.744 28.3512 14.744C29.2959 14.744 30.1452 14.9477 30.8992 15.355C31.6532 15.7623 32.2469 16.3257 32.6802 17.045C33.1136 17.7557 33.3302 18.5573 33.3302 19.45C33.3302 20.3427 33.1136 21.1487 32.6802 21.868C32.2469 22.5787 31.6532 23.1377 30.8992 23.545C30.1452 23.9523 29.2959 24.156 28.3512 24.156ZM28.3512 22.362C28.8886 22.362 29.3739 22.2407 29.8072 21.998C30.2406 21.7467 30.5786 21.4 30.8212 20.958C31.0726 20.516 31.1982 20.0133 31.1982 19.45C31.1982 18.8867 31.0726 18.384 30.8212 17.942C30.5786 17.5 30.2406 17.1577 29.8072 16.915C29.3739 16.6637 28.8886 16.538 28.3512 16.538C27.8139 16.538 27.3286 16.6637 26.8952 16.915C26.4619 17.1577 26.1196 17.5 25.8682 17.942C25.6256 18.384 25.5042 18.8867 25.5042 19.45C25.5042 20.0133 25.6256 20.516 25.8682 20.958C26.1196 21.4 26.4619 21.7467 26.8952 21.998C27.3286 22.2407 27.8139 22.362 28.3512 22.362Z" fill="#B38340"/>
</svg>
