<svg width="22" height="22" viewBox="0 0 22 22" fill="none" xmlns="http://www.w3.org/2000/svg">
    <path d="M3.57499 3.39165L20.4417 7.88332C20.9 7.97499 21.2667 8.52499 21.0833 8.98332L18.7 17.875C18.6083 18.3333 18.0583 18.7 17.6 18.5167L0.733334 14.025C0.275001 13.9333 -0.091663 13.3833 0.0916703 12.925L2.47499 4.03331C2.56666 3.57498 3.02499 3.29998 3.57499 3.39165ZM9.625 14.575C11.55 15.125 13.5667 13.9333 14.1167 12.0083C14.6667 10.0833 13.475 8.06665 11.55 7.51665C9.625 6.96665 7.60833 8.15832 7.05833 10.0833C6.50833 12.0083 7.60833 14.025 9.625 14.575Z" fill="#DCDCDC"/>
    <path d="M1.83341 5.5H19.2501C19.8001 5.5 20.1667 5.86667 20.1667 6.41667V15.5833C20.1667 16.1333 19.8001 16.5 19.2501 16.5H1.83341C1.28341 16.5 0.916748 16.1333 0.916748 15.5833V6.41667C0.916748 5.86667 1.28341 5.5 1.83341 5.5ZM10.5417 14.6667C12.5584 14.6667 14.2084 13.0167 14.2084 11C14.2084 8.98333 12.5584 7.33333 10.5417 7.33333C8.52508 7.33333 6.87508 8.98333 6.87508 11C6.87508 13.0167 8.52508 14.6667 10.5417 14.6667ZM10.5417 12.8333C11.5501 12.8333 12.3751 12.0083 12.3751 11C12.3751 9.99167 11.5501 9.16667 10.5417 9.16667C9.53341 9.16667 8.70842 9.99167 8.70842 11C8.70842 12.0083 9.53341 12.8333 10.5417 12.8333Z" fill="#ABA9B2"/>
</svg>
