<svg width="22" height="22" viewBox="0 0 22 22" fill="none" xmlns="http://www.w3.org/2000/svg">
    <path d="M16.4999 12.8333C14.9416 12.8333 13.7499 11.6417 13.7499 10.0833C13.7499 8.525 14.9416 7.33333 16.4999 7.33333C18.0583 7.33333 19.2499 8.525 19.2499 10.0833C19.2499 11.6417 18.0583 12.8333 16.4999 12.8333ZM8.24992 10.0833C6.23325 10.0833 4.58325 8.43333 4.58325 6.41667C4.58325 4.4 6.23325 2.75 8.24992 2.75C10.2666 2.75 11.9166 4.4 11.9166 6.41667C11.9166 8.43333 10.2666 10.0833 8.24992 10.0833Z" fill="#DCDCDC"/>
    <path d="M16.1333 13.75C19.25 13.75 21.8167 15.4 22 18.7C22 18.7917 22 19.25 21.5417 19.25H17.9667C17.9667 17.1417 17.325 15.3083 16.1333 13.75ZM0 18.5167C0.366667 14.1167 3.94167 11.9167 8.25 11.9167C12.65 11.9167 16.225 14.025 16.5 18.5167C16.5 18.7 16.5 19.25 15.7667 19.25C12.375 19.25 7.33333 19.25 0.641667 19.25C0.458334 19.25 0 18.7917 0 18.5167Z" fill="#ABA9B2"/>
</svg>
