<svg width="22" height="22" viewBox="0 0 22 22" fill="none" xmlns="http://www.w3.org/2000/svg">
    <path opacity="0.3" d="M3.66659 1.83334H9.16659C10.1749 1.83334 10.9999 2.65834 10.9999 3.66668V11C10.9999 12.0083 10.1749 12.8333 9.16659 12.8333H3.66659C2.65825 12.8333 1.83325 12.0083 1.83325 11V3.66668C1.83325 2.65834 2.65825 1.83334 3.66659 1.83334Z" fill="black"/>
    <path d="M3.66659 5.5H18.3333C19.3416 5.5 20.1666 6.325 20.1666 7.33333V18.3333C20.1666 19.3417 19.3416 20.1667 18.3333 20.1667H3.66659C2.65825 20.1667 1.83325 19.3417 1.83325 18.3333V7.33333C1.83325 6.325 2.65825 5.5 3.66659 5.5ZM16.4999 14.6667C17.5083 14.6667 18.3333 13.8417 18.3333 12.8333C18.3333 11.825 17.5083 11 16.4999 11C15.4916 11 14.6666 11.825 14.6666 12.8333C14.6666 13.8417 15.4916 14.6667 16.4999 14.6667Z" fill="#673AF6"/>
</svg>
