<svg width="25" height="25" viewBox="0 0 25 25" fill="none" xmlns="http://www.w3.org/2000/svg">
    <path d="M4.16659 2.08334H10.4166C11.5624 2.08334 12.4999 3.02084 12.4999 4.16668V12.5C12.4999 13.6458 11.5624 14.5833 10.4166 14.5833H4.16659C3.02075 14.5833 2.08325 13.6458 2.08325 12.5V4.16668C2.08325 3.02084 3.02075 2.08334 4.16659 2.08334Z" fill="#DCDCDC"/>
    <path d="M4.16659 6.25H20.8333C21.9791 6.25 22.9166 7.1875 22.9166 8.33333V20.8333C22.9166 21.9792 21.9791 22.9167 20.8333 22.9167H4.16659C3.02075 22.9167 2.08325 21.9792 2.08325 20.8333V8.33333C2.08325 7.1875 3.02075 6.25 4.16659 6.25ZM18.7499 16.6667C19.8958 16.6667 20.8333 15.7292 20.8333 14.5833C20.8333 13.4375 19.8958 12.5 18.7499 12.5C17.6041 12.5 16.6666 13.4375 16.6666 14.5833C16.6666 15.7292 17.6041 16.6667 18.7499 16.6667Z" fill="#ABA9B2"/>
</svg>
