<svg id="Capa_1" enable-background="new 0 0 475.293 475.293" height="512" viewBox="0 0 475.293 475.293" width="512" xmlns="http://www.w3.org/2000/svg"><path d="m460.44 148.529h-14.853v-44.559c0-24.571-19.988-44.559-44.559-44.559h-356.469c-24.571.001-44.559 19.988-44.559 44.559v267.352c0 24.571 19.988 44.559 44.559 44.559h356.47c24.571 0 44.559-19.988 44.559-44.559v-44.559h14.853c8.21 0 14.853-6.643 14.853-14.853v-148.528c-.001-8.21-6.644-14.853-14.854-14.853zm-44.558 222.794c0 8.195-6.658 14.853-14.853 14.853h-356.47c-8.195 0-14.853-6.658-14.853-14.853v-267.353c0-8.195 6.658-14.853 14.853-14.853h356.47c8.195 0 14.853 6.658 14.853 14.853v44.559h-59.412c-49.142 0-89.117 39.975-89.117 89.117s39.975 89.117 89.117 89.117h59.412zm29.705-74.265h-89.117c-32.766 0-59.412-26.645-59.412-59.412 0-32.766 26.645-59.412 59.412-59.412h89.117z"/></svg>